<svg xmlns="http://www.w3.org/2000/svg" version="1.0" viewBox="0 0 321.75 99.75">
  <path fill="#fff" d="M15.715 25.826 9.371 33.59l6.89 9.547h-4.608L5.59 34.326v8.812H1.887V25.872H5.59v7.454l5.797-7.5Zm11.288 0 6.016 17.312h-3.734l-1.25-3.734H21.19l-1.297 3.734h-3.531l6.25-17.312Zm-4.86 10.78h4.97l-2.407-7.374Zm25.73-10.78V28.7h-5.14v14.437h-3.735V28.701h-5.156v-2.875Zm13.62 0v2.828h-7.875v4.125h7.375v2.812h-7.375v4.672h8.141v2.875h-11.86V25.826Zm8.871.046c2.757 0 4.878.743 6.359 2.22 1.477 1.48 2.219 3.538 2.219 6.171 0 2.649-.7 4.79-2.094 6.422-1.398 1.637-3.496 2.453-6.297 2.453h-6.234V25.872Zm-2.297 14.422c.258 0 .508.012.75.032.25.011.504.015.765.015 1.426 0 2.489-.191 3.188-.578.695-.394 1.258-1.062 1.687-2 .438-.945.657-2.125.657-3.531 0-1.32-.227-2.399-.672-3.235-.45-.843-1.028-1.44-1.735-1.796-.699-.364-1.824-.547-3.375-.547h-.797a5.4 5.4 0 0 0-.468.031ZM89.25 25.826c1.956 0 3.378.445 4.265 1.328.883.886 1.328 1.945 1.328 3.172 0 1.054-.297 1.937-.89 2.656-.587.719-1.493 1.25-2.72 1.594 1 .105 1.727.414 2.188.921.469.5.813 1.766 1.031 3.797.22 2.024.535 3.305.953 3.844h-4.093a748.876 748.876 0 0 0-.828-5.672c-.137-.875-.743-1.312-1.813-1.312H85.25v6.984h-3.781V25.826Zm-.891 7.562c.8 0 1.437-.219 1.906-.656.469-.445.703-1.055.703-1.828 0-.758-.215-1.336-.64-1.735-.419-.406-1.06-.609-1.923-.609h-3.28v4.828Zm18.397-7.562 6.016 17.312h-3.735l-1.25-3.734h-6.843l-1.297 3.734h-3.531l6.25-17.312Zm-4.86 10.78h4.97l-2.407-7.374ZM7.778 58.743l3.656 12.594 3.953-12.594h5.89v17.313H17.59V61.212l-4.719 14.844H9.81L5.184 61.212v14.844H1.715V58.743Zm25.853 0 6.016 17.313h-3.734l-1.25-3.735h-6.844l-1.297 3.735h-3.531l6.25-17.313Zm-4.859 10.781h4.969l-2.406-7.375Zm25.729-10.781v2.875h-5.14v14.438h-3.735V61.618H40.47v-2.875Zm13.621 0v2.828h-7.875v4.125h7.375v2.813h-7.375v4.672h8.14v2.875h-11.86V58.743Zm8.76 0 3.657 12.594 3.953-12.594h5.89v17.313h-3.687V61.212l-4.719 14.844h-3.062l-4.625-14.844v14.844h-3.47V58.743Zm25.854 0 6.016 17.313h-3.734l-1.25-3.735h-6.844l-1.297 3.735h-3.531l6.25-17.313Zm-4.86 10.781h4.97l-2.407-7.375Zm25.73-10.781v2.875h-5.14v14.438h-3.735V61.618h-5.156v-2.875Zm5.402-.047v17.36h-3.703v-17.36Zm16.949.047-6.344 7.766 6.89 9.547h-4.609l-6.062-8.813v8.813h-3.704V58.79h3.704v7.453l5.796-7.5Zm5.241.078 3.562 7.875 3.641-7.875h3.813L156.37 69.76v6.297h-3.672v-6.344l-5.828-10.89Zm0 0"/>
</svg>
