<svg xmlns="http://www.w3.org/2000/svg" xml:space="preserve" viewBox="0 0 312.129 132.969">
  <path fill="#FFF" fill-rule="evenodd" d="M269.956 104.102h19.396l19.4-73.25H291.93l-10.316 47.454c-.929 4.646-1.441 7.842-1.749 11.142h-.413c-.308-3.3-.829-6.496-1.754-11.142l-10.321-47.454h-16.812l19.391 73.25zm-59.887-28.479 5.159-21.562c.824-3.404 1.55-6.292 2.062-10.524h.209c.616 4.232 1.337 7.12 2.063 10.525l5.158 21.561h-14.651zm21.563 28.479h16.092L227.2 30.852h-19.505l-20.628 73.25h16.091l4.125-17.025h20.225l4.124 17.025zm-48.859-60.976V30.852h-41.991v73.25h15.991V73.043h24.346V60.976h-24.346v-17.85h26zm-94.242 8.02v30.691l26.568-15.354-26.568-15.337zM0 132.935l38.643-22.302c-10.798-3.607-18.564-11.635-18.698-25.514V39.205h19.864v44.926c.305 9.138 5.08 14.903 14.427 14.903 2.641 0 4.902-.48 6.818-1.347l2.087-1.205c3.48-2.529 5.317-6.813 5.506-12.352V39.689h.043L0 .034v132.901z" clip-rule="evenodd"/>
</svg>
